<svg width="114" height="58" viewBox="0 0 114 58" fill="none" xmlns="http://www.w3.org/2000/svg">
<mask id="mask0_1084_2531" style="mask-type:luminance" maskUnits="userSpaceOnUse" x="0" y="0" width="114" height="58">
<path d="M113.077 0H0V58H113.077V0Z" fill="white"/>
</mask>
<g mask="url(#mask0_1084_2531)">
<path d="M23.7316 2.9541C23.8803 2.9541 16.7451 3.68377 12.2768 6.79069C11.0301 7.61404 9.96843 8.68775 9.15913 9.94356C8.34983 11.1994 7.81066 12.6098 7.57588 14.0853C7.36016 16.0304 7.02176 16.961 9.62954 21.0556C15.0376 29.5472 25.9086 42.8132 26.4247 43.5865C27.2784 44.8654 28.847 47.4407 25.0647 50.4123C22.471 51.9795 18.1128 53.6031 12.4566 50.6654C7.3665 48.0217 2.87497 40.1278 2.87497 40.1278C2.93649 41.7166 2.682 43.3017 2.12627 44.7914C1.23656 46.869 0 47.2222 0 47.2222C0.0183299 47.2539 3.59548 53.7857 9.75996 56.3808C13.3117 57.8761 18.0662 58.0925 22.1975 57.9713C25.4278 57.8768 32.0477 55.5447 34.3812 52.1847C36.7148 48.8246 36.3552 46.1217 35.6502 43.5837C34.9452 41.0457 20.5781 24.5629 16.437 16.894C16.155 16.3758 15.0615 12.4913 16.167 10.3023C18.2305 6.2133 23.4214 2.9541 23.7316 2.9541Z" fill="#FF9800"/>
<path d="M23.7324 13.1882C24.3915 13.2439 28.7745 10.9667 33.1194 10.1116C37.4643 9.2564 42.2096 8.44495 42.6234 9.33607C43.5646 10.9209 44.3373 13.8932 42.3414 14.8216C38.9722 16.5164 30.0428 15.2912 26.9655 18.0174C26.0306 19.108 28.9275 22.3757 29.01 22.5223C32.8064 29.0879 39.1168 37.3575 40.4661 38.1401C40.7199 38.2867 44.0024 42.045 46.6349 40.7281C49.6706 39.2103 58.0727 29.3699 63.3757 26.5232C68.3374 23.8597 69.6029 26.5232 69.6029 26.5232C68.5745 26.7528 67.5986 27.1745 66.7265 27.7661C65.4501 28.6013 64.3183 29.639 63.3757 30.8384L53.2569 42.6732C51.7048 44.6179 49.6599 46.1109 47.3349 46.9969C44.8237 47.8817 41.4503 47.6575 40.4654 46.6071C33.4698 39.1503 23.2276 25.0885 19.2147 18.9529C19.0406 18.6871 16.846 14.3112 17.0723 11.4595C17.3402 8.09245 22.8532 2.88606 27.9391 1.62059C33.0249 0.355125 40.0946 -0.396401 41.6886 0.218355C42.3316 0.466514 43.3376 2.71263 42.6234 4.19101C41.9093 5.66938 39.7682 5.80263 38.3779 6.13821C36.1995 6.66413 30.7245 6.73252 27.9398 7.38464C27.0374 7.59614 24.3718 8.76502 23.7331 9.56589C22.8708 10.6445 22.9569 13.1226 23.7324 13.1882Z" fill="#17243F"/>
<path d="M40.9378 18.3535H38.1721V19.7367H40.9378V18.3535Z" fill="#FF9800"/>
<path d="M40.9378 18.3535H38.1721V19.7367H40.9378V18.3535Z" fill="#FF9800"/>
<path d="M40.9378 21.1191H38.1721V22.5023H40.9378V21.1191Z" fill="#FF9800"/>
<path d="M40.9378 21.1182H38.1721V22.5014H40.9378V21.1182Z" fill="#FF9800"/>
<path d="M40.9378 23.8848H38.1721V25.268H40.9378V23.8848Z" fill="#FF9800"/>
<path d="M40.9378 23.8848H38.1721V25.268H40.9378V23.8848Z" fill="#FF9800"/>
<path d="M40.9378 26.6504H38.1721V28.0336H40.9378V26.6504Z" fill="#FF9800"/>
<path d="M40.9378 26.6504H38.1721V28.0336H40.9378V26.6504Z" fill="#FF9800"/>
<path d="M40.9378 29.416H38.1721V30.7992H40.9378V29.416Z" fill="#FF9800"/>
<path d="M40.9378 29.416H38.1721V30.7992H40.9378V29.416Z" fill="#FF9800"/>
<path d="M40.9378 32.1816H38.1721V33.5648H40.9378V32.1816Z" fill="#FF9800"/>
<path d="M40.9378 32.1816H38.1721V33.5648H40.9378V32.1816Z" fill="#FF9800"/>
<path d="M40.9378 34.9473H38.1721V36.3305H40.9378V34.9473Z" fill="#FF9800"/>
<path d="M40.9378 34.9473H38.1721V36.3305H40.9378V34.9473Z" fill="#FF9800"/>
<path d="M43.6344 17.5234H40.8687V18.9059H43.6344V17.5234Z" fill="#FF9800"/>
<path d="M43.6336 17.5234H40.8679V18.9059H43.6336V17.5234Z" fill="#FF9800"/>
<path d="M43.6344 20.2891H40.8687V21.6716H43.6344V20.2891Z" fill="#FF9800"/>
<path d="M43.6336 20.2891H40.8679V21.6716H43.6336V20.2891Z" fill="#FF9800"/>
<path d="M43.6344 23.0547H40.8687V24.4372H43.6344V23.0547Z" fill="#FF9800"/>
<path d="M43.6336 23.0547H40.8679V24.4372H43.6336V23.0547Z" fill="#FF9800"/>
<path d="M43.6344 25.8203H40.8687V27.2028H43.6344V25.8203Z" fill="#FF9800"/>
<path d="M43.6336 25.8203H40.8679V27.2028H43.6336V25.8203Z" fill="#FF9800"/>
<path d="M43.6344 28.5859H40.8687V29.9684H43.6344V28.5859Z" fill="#FF9800"/>
<path d="M43.6336 28.5859H40.8679V29.9684H43.6336V28.5859Z" fill="#FF9800"/>
<path d="M43.6344 31.3516H40.8687V32.7341H43.6344V31.3516Z" fill="#FF9800"/>
<path d="M43.6336 31.3516H40.8679V32.7341H43.6336V31.3516Z" fill="#FF9800"/>
<path d="M43.6344 34.1172H40.8687V35.4997H43.6344V34.1172Z" fill="#FF9800"/>
<path d="M43.6336 34.1172H40.8679V35.4997H43.6336V34.1172Z" fill="#FF9800"/>
<path d="M46.4683 16.5557H43.7026V17.9389H46.4683V16.5557Z" fill="#FF9800"/>
<path d="M46.4683 16.5557H43.7026V17.9389H46.4683V16.5557Z" fill="#FF9800"/>
<path d="M46.4683 19.3213H43.7026V20.7045H46.4683V19.3213Z" fill="#FF9800"/>
<path d="M46.4683 19.3213H43.7026V20.7038H46.4683V19.3213Z" fill="#FF9800"/>
<path d="M46.4683 22.0869H43.7026V23.4694H46.4683V22.0869Z" fill="#FF9800"/>
<path d="M46.4683 22.0869H43.7026V23.4694H46.4683V22.0869Z" fill="#FF9800"/>
<path d="M46.4683 24.8525H43.7026V26.235H46.4683V24.8525Z" fill="#FF9800"/>
<path d="M46.4683 24.8525H43.7026V26.235H46.4683V24.8525Z" fill="#FF9800"/>
<path d="M46.4683 27.6182H43.7026V29.0007H46.4683V27.6182Z" fill="#FF9800"/>
<path d="M46.4683 27.6182H43.7026V29.0007H46.4683V27.6182Z" fill="#FF9800"/>
<path d="M46.4683 30.3838H43.7026V31.7663H46.4683V30.3838Z" fill="#FF9800"/>
<path d="M46.4683 30.3838H43.7026V31.7663H46.4683V30.3838Z" fill="#FF9800"/>
<path d="M46.4683 33.1494H43.7026V34.5319H46.4683V33.1494Z" fill="#FF9800"/>
<path d="M46.4683 33.1494H43.7026V34.5319H46.4683V33.1494Z" fill="#FF9800"/>
<path d="M49.2342 15.7256H46.4685V17.1081H49.2342V15.7256Z" fill="#FF9800"/>
<path d="M49.2342 15.7256H46.4685V17.1081H49.2342V15.7256Z" fill="#FF9800"/>
<path d="M49.2342 18.4912H46.4685V19.8737H49.2342V18.4912Z" fill="#FF9800"/>
<path d="M49.2342 18.4912H46.4685V19.8744H49.2342V18.4912Z" fill="#FF9800"/>
<path d="M49.2342 21.2578H46.4685V22.641H49.2342V21.2578Z" fill="#FF9800"/>
<path d="M49.2342 21.2578H46.4685V22.641H49.2342V21.2578Z" fill="#FF9800"/>
<path d="M49.2342 24.0234H46.4685V25.4066H49.2342V24.0234Z" fill="#FF9800"/>
<path d="M49.2342 24.0225H46.4685V25.4057H49.2342V24.0225Z" fill="#FF9800"/>
<path d="M49.2342 26.7881H46.4685V28.1713H49.2342V26.7881Z" fill="#FF9800"/>
<path d="M49.2342 26.7881H46.4685V28.1713H49.2342V26.7881Z" fill="#FF9800"/>
<path d="M49.2342 29.5537H46.4685V30.9369H49.2342V29.5537Z" fill="#FF9800"/>
<path d="M49.2342 29.5537H46.4685V30.9369H49.2342V29.5537Z" fill="#FF9800"/>
<path d="M49.2342 32.3193H46.4685V33.7025H49.2342V32.3193Z" fill="#FF9800"/>
<path d="M49.2342 32.3193H46.4685V33.7025H49.2342V32.3193Z" fill="#FF9800"/>
<path d="M52.0689 15.1729H49.3032V16.5553H52.0689V15.1729Z" fill="#FF9800"/>
<path d="M52.0689 15.1729H49.3032V16.5553H52.0689V15.1729Z" fill="#FF9800"/>
<path d="M52.0689 17.9385H49.3032V19.321H52.0689V17.9385Z" fill="#FF9800"/>
<path d="M52.0689 17.9385H49.3032V19.3217H52.0689V17.9385Z" fill="#FF9800"/>
<path d="M52.0689 20.7041H49.3032V22.0873H52.0689V20.7041Z" fill="#FF9800"/>
<path d="M52.0689 20.7041H49.3032V22.0873H52.0689V20.7041Z" fill="#FF9800"/>
<path d="M52.0689 23.4697H49.3032V24.8529H52.0689V23.4697Z" fill="#FF9800"/>
<path d="M52.0689 23.4697H49.3032V24.8529H52.0689V23.4697Z" fill="#FF9800"/>
<path d="M52.0689 26.2354H49.3032V27.6186H52.0689V26.2354Z" fill="#FF9800"/>
<path d="M52.0689 26.2354H49.3032V27.6186H52.0689V26.2354Z" fill="#FF9800"/>
<path d="M52.0689 29.001H49.3032V30.3842H52.0689V29.001Z" fill="#FF9800"/>
<path d="M52.0689 29.001H49.3032V30.3842H52.0689V29.001Z" fill="#FF9800"/>
<path d="M52.0689 31.7666H49.3032V33.1498H52.0689V31.7666Z" fill="#FF9800"/>
<path d="M52.0689 31.7666H49.3032V33.1498H52.0689V31.7666Z" fill="#FF9800"/>
<path d="M68.716 40.7205C68.0881 40.7311 67.4651 40.6075 66.8887 40.3581C66.3844 40.1425 65.9475 39.795 65.6239 39.3521C65.3164 38.9172 65.1512 38.3978 65.1509 37.8652H66.5891C66.6304 38.3325 66.844 38.7677 67.1883 39.0863C67.6157 39.4427 68.1645 39.6196 68.7196 39.5798C69.2669 39.6106 69.8065 39.4395 70.236 39.099C70.4154 38.9479 70.5585 38.7584 70.6546 38.5444C70.7506 38.3305 70.7972 38.0976 70.7908 37.8631C70.8047 37.5135 70.6875 37.1714 70.4623 36.9036C70.2404 36.653 69.9613 36.4595 69.6488 36.3396C69.2176 36.1777 68.778 36.0393 68.3318 35.9251C67.7744 35.7884 67.228 35.6105 66.6969 35.3928C66.2803 35.2094 65.9184 34.921 65.6465 34.556C65.3349 34.1083 65.1813 33.5695 65.2101 33.0247C65.201 32.4949 65.3505 31.9744 65.6394 31.5302C65.9372 31.0867 66.3558 30.7378 66.8457 30.5248C67.4073 30.2799 68.0154 30.1597 68.6279 30.1723C69.4791 30.1361 70.3171 30.3918 71.003 30.8971C71.3025 31.1262 71.5502 31.4159 71.73 31.7473C71.9098 32.0787 72.0177 32.4444 72.0464 32.8203H70.566C70.5046 32.4042 70.2814 32.0292 69.9449 31.7769C69.53 31.4598 69.0162 31.2999 68.4947 31.3257C67.9988 31.3039 67.5112 31.4585 67.1185 31.7621C66.9412 31.9104 66.8008 32.098 66.7085 32.3099C66.6161 32.5218 66.5742 32.7523 66.5862 32.9832C66.5723 33.3179 66.686 33.6454 66.9042 33.8996C67.1194 34.1389 67.388 34.3242 67.6882 34.4404C67.9988 34.5635 68.4352 34.7045 68.9973 34.8634C69.5572 35.0096 70.1061 35.195 70.64 35.4182C71.0605 35.6063 71.4268 35.8972 71.7052 36.2642C72.0229 36.715 72.1793 37.2596 72.1494 37.8103C72.1497 38.3116 72.0113 38.8032 71.7496 39.2308C71.4628 39.6935 71.053 40.0675 70.566 40.3109C69.9926 40.5986 69.3573 40.7409 68.716 40.7254M74.442 31.4033V34.8507H78.2004V35.9603H74.4427V39.5114H78.6445V40.6211H73.0962V30.2887H78.6445V31.3983L74.442 31.4033ZM90.1113 30.3824V40.6161H88.7647V32.9817L85.3617 40.6161H84.4142L80.9964 32.9669V40.6161H79.6498V30.3775H81.1L84.8879 38.841L88.6759 30.3775L90.1113 30.3824ZM92.7007 30.3084V40.6161H91.3542V30.3035L92.7007 30.3084Z" fill="#17243F"/>
<path d="M56.1487 46.0867V47.3056H53.0094V49.2394H55.4148V50.4379H53.0094V53.6195H51.5V46.0867H56.1487ZM58.2954 47.3056V49.1929H60.8334V50.3914H58.2954V52.3865H61.1542V53.616H56.7832V46.0761H61.1542V47.3056H58.2954ZM65.975 53.6153L64.314 50.6818H63.6027V53.6153H62.0926V46.0867H64.9182C65.4317 46.0718 65.9415 46.177 66.4071 46.394C66.7895 46.5741 67.1103 46.863 67.3293 47.2245C67.536 47.5795 67.6422 47.9841 67.6366 48.3948C67.6403 48.8761 67.489 49.3457 67.2052 49.7343C66.8885 50.1528 66.4336 50.4453 65.9214 50.5599L67.7226 53.6118L65.975 53.6153ZM63.602 49.5489H64.8639C65.1966 49.5752 65.5262 49.4685 65.7804 49.2521C65.8845 49.1426 65.965 49.0129 66.0169 48.871C66.0688 48.7291 66.091 48.5781 66.0821 48.4272C66.0908 48.2796 66.0685 48.1318 66.0165 47.9934C65.9645 47.855 65.8841 47.729 65.7804 47.6236C65.5229 47.4143 65.1947 47.3121 64.8639 47.338H63.602V49.5489ZM76.7854 46.0867V53.6153H75.2753V48.7184L73.2583 53.6153H72.112L70.0844 48.7184V53.6153H68.5743V46.0867H70.2888L72.6858 51.6843L75.0828 46.0867H76.7854ZM79.3523 47.3056V49.1929H81.8903V50.3914H79.3523V52.3865H82.211V53.616H77.8401V46.0761H82.211V47.3056H79.3523ZM88.2719 46.0867V47.3056H86.2662V53.6153H84.7561V47.3056H82.7503V46.0867H88.2719ZM90.4292 46.0867V50.746C90.4145 50.9578 90.4422 51.1704 90.5107 51.3713C90.5793 51.5723 90.6872 51.7575 90.8282 51.9163C90.9777 52.0566 91.1543 52.1649 91.3472 52.2345C91.5401 52.3041 91.7452 52.3335 91.9498 52.3209C92.1563 52.3341 92.3632 52.305 92.558 52.2354C92.7528 52.1658 92.9314 52.0572 93.0828 51.9163C93.2237 51.7575 93.3316 51.5723 93.4001 51.3713C93.4687 51.1704 93.4964 50.9578 93.4818 50.746V46.0867H95.0032V50.7354C95.0212 51.3043 94.8772 51.8667 94.5879 52.3569C94.3214 52.7895 93.9356 53.136 93.4769 53.3545C92.9919 53.5823 92.4616 53.6968 91.9259 53.6893C91.3981 53.6964 90.8759 53.5818 90.3995 53.3545C89.9478 53.136 89.5706 52.7889 89.3153 52.3569C89.0363 51.8631 88.8983 51.3022 88.9162 50.7354V46.0867H90.4292ZM99.9099 53.6153L98.249 50.6818H97.5341V53.6153H96.024V46.0867H98.8503C99.3636 46.0718 99.8732 46.1771 100.339 46.394C100.721 46.5739 101.042 46.8629 101.261 47.2245C101.482 47.6117 101.587 48.054 101.565 48.4993C101.543 48.9446 101.395 49.3743 101.137 49.7378C100.82 50.1563 100.365 50.4488 99.8528 50.5634L101.654 53.6153H99.9099ZM97.5369 49.5489H98.7989C99.1316 49.5752 99.4612 49.4685 99.7154 49.2521C99.8195 49.1426 99.8999 49.0129 99.9519 48.871C100.004 48.7291 100.026 48.5781 100.017 48.4272C100.026 48.2796 100.003 48.1318 99.9515 47.9934C99.8995 47.855 99.8191 47.729 99.7154 47.6236C99.4578 47.4143 99.1297 47.3121 98.7989 47.338H97.5369V49.5489ZM104.019 47.3056V49.1929H106.557V50.3914H104.019V52.3865H106.877V53.616H102.506V46.0761H106.877V47.3056H104.019ZM110.416 53.6908C109.93 53.6983 109.447 53.6067 108.997 53.4214C108.6 53.2599 108.254 52.9915 108 52.6459C107.751 52.296 107.619 51.8767 107.622 51.4475H109.24C109.244 51.5854 109.275 51.7212 109.331 51.847C109.388 51.9729 109.468 52.0862 109.569 52.1806C109.796 52.3711 110.087 52.4677 110.383 52.4507C110.682 52.4678 110.976 52.3778 111.214 52.1969C111.312 52.1168 111.39 52.0154 111.442 51.9003C111.494 51.7853 111.52 51.6598 111.516 51.5335C111.519 51.4328 111.503 51.3324 111.468 51.238C111.433 51.1436 111.379 51.0572 111.31 50.9836C111.166 50.8345 110.991 50.7186 110.798 50.6438C110.521 50.5374 110.239 50.4456 109.952 50.3688C109.545 50.2558 109.147 50.1145 108.76 49.9458C108.449 49.8021 108.179 49.5842 107.972 49.3113C107.738 48.9796 107.622 48.5789 107.643 48.1735C107.634 47.7603 107.75 47.3541 107.977 47.0088C108.21 46.67 108.536 46.4058 108.916 46.2481C109.353 46.0654 109.823 45.9754 110.297 45.9837C110.973 45.9521 111.641 46.1509 112.19 46.5477C112.431 46.7364 112.628 46.9757 112.767 47.2486C112.905 47.5215 112.983 47.8216 112.993 48.1276H111.332C111.327 48.0033 111.295 47.8816 111.238 47.7709C111.182 47.6602 111.102 47.563 111.004 47.4861C110.771 47.3081 110.482 47.2184 110.189 47.233C109.935 47.2201 109.684 47.3006 109.484 47.4593C109.394 47.5421 109.323 47.6442 109.277 47.7581C109.231 47.8719 109.212 47.9946 109.219 48.1171C109.217 48.2099 109.233 48.3023 109.267 48.3887C109.302 48.475 109.353 48.5534 109.419 48.619C109.561 48.7579 109.728 48.8678 109.912 48.9426C110.11 49.0253 110.389 49.1205 110.749 49.2281C111.158 49.3428 111.559 49.487 111.947 49.6596C112.261 49.8076 112.535 50.0297 112.745 50.3068C112.981 50.6357 113.099 51.0346 113.08 51.439C113.082 51.8347 112.973 52.223 112.767 52.5606C112.546 52.917 112.228 53.2031 111.85 53.3855C111.403 53.6003 110.912 53.7056 110.416 53.6929" fill="#FF9800"/>
</g>
</svg>
